<?xml version="1.0" encoding="utf-8"?>
<!-- Generator: Adobe Illustrator 22.0.0, SVG Export Plug-In . SVG Version: 6.00 Build 0)  -->
<svg version="1.1" id="Layer_1" xmlns="http://www.w3.org/2000/svg" xmlns:xlink="http://www.w3.org/1999/xlink" x="0px" y="0px"
	 viewBox="0 0 1920 1080" style="enable-background:new 0 0 1920 1080;" xml:space="preserve">
<style type="text/css">
	.st0{fill:#363A4D;}
	.st1{fill:none;}
</style>
<g>
	<g>
		<path class="st0" d="M1500.2,468.8c-28.3,0-52.5-5.1-72.4-15.2c-19.9-10.2-35.2-24.9-45.7-44.3c-10.5-19.4-15.8-42.9-15.8-70.6
			V243c0-27.5,5.3-51,15.8-70.4c10.5-19.4,25.7-34.3,45.7-44.5c19.9-10.2,44.1-15.4,72.4-15.4c23.4,0,44.2,4.7,62.5,14.2
			c18.2,9.4,33.3,23.2,45.3,41.2c12,18,20.2,39.7,24.8,65.2h-72.3c-2.9-11.7-7.1-21.6-12.7-29.6c-5.6-8.1-12.4-14.3-20.5-18.6
			c-8.1-4.3-17.1-6.5-27.1-6.5c-19.7,0-34.9,5.6-45.5,16.9c-10.7,11.3-16,27.2-16,47.6v95.8c0,20.5,5.3,36.3,16,47.5
			c10.7,11.2,25.9,16.8,45.5,16.8c15.3,0,28.2-4.3,38.7-13c10.5-8.6,17.7-21,21.6-37h72.3c-4.8,24.5-13.1,45.4-25.1,62.6
			s-27,30.4-45.2,39.5C1544.3,464.3,1523.6,468.8,1500.2,468.8z"/>
		<path class="st0" d="M1368.8,956.7V607.8h69.5v348.9H1368.8z M1399.4,956.7v-62.2h105.3c22.9,0,39.1-3.8,48.6-11.5
			c9.5-7.7,14.3-17.8,14.3-30.5v-0.7c0-13.1-3.9-23.6-11.7-31.4c-7.8-7.8-20.6-11.8-38.4-11.8h-118.1v-61.9h118.1
			c30.2,0,45.3-13,45.3-39.1c0-25.1-17.5-37.7-52.4-37.7h-110.9v-62.2h120.4c38.3,0,66.8,8.6,85.4,25.7
			c18.6,17.1,27.9,40.1,27.9,68.9c0,17-5.8,32.8-17.3,47.5c-11.5,14.7-29.9,24.1-55.2,28.1c24.6,3.2,43.6,12.8,57.1,28.7
			c13.5,15.9,20.2,34,20.2,54.4v0.7c0,28.5-10.2,51.4-30.7,68.9c-20.4,17.4-48.1,26.2-83.1,26.2H1399.4z"/>
	</g>
</g>
<line class="st1" x1="2093" y1="1143" x2="1887" y2="1375"/>
</svg>
